<svg width="300" height="300" viewBox="0 0 300 300" fill="none" xmlns="http://www.w3.org/2000/svg">
<path d="M105.3 66.6C105.3 52.2 117 40.2001 131.7 40.2001H168.3C183 40.2001 194.7 51.9 194.7 66.6V112.8L228.9 117V66.6C228.9 33.3 201.9 6 168.3 6H131.7C98.4001 6 71.1001 33 71.1001 66.6V117L105.3 112.8V66.6Z" fill="#1DB954"/>
<path d="M239.4 125.1L228.6 123.9L194.4 119.7L153 114.6C151.8 114.6 150.9 114.3 149.7 114.3C148.8 114.3 147.6 114.3 146.4 114.6L105 119.7L70.8 123.9L60.3 125.1C46.8 126.6 36.6001 138.3 36.6001 151.8V256.8C36.6001 270.6 46.8 282 60.3 283.5L146.4 294C147.6 294 148.5 294.3 149.7 294.3C150.9 294.3 151.8 294.3 153 294L239.1 283.5C252.6 282 262.8 270.3 262.8 256.8V151.8C263.1 138 252.9 126.6 239.4 125.1ZM165.9 242.1H134.4L139.8 201C134.4 197.4 130.5 191.4 130.5 184.5C130.5 173.7 139.2 165 150 165C160.8 165 169.5 173.7 169.5 184.5C169.5 191.4 165.9 197.4 160.2 201L165.9 242.1Z" fill="#1DB954"/>
</svg>
