<svg width="134" height="41" viewBox="0 0 134 41" fill="none" xmlns="http://www.w3.org/2000/svg">
<path d="M61.5489 8.47553C61.5489 6.46154 62.9757 4.78323 64.7684 4.78323H69.2318C71.0245 4.78323 72.4513 6.41959 72.4513 8.47553V14.9371L76.6221 15.5245V8.47553C76.6221 3.81819 73.3294 0 69.2318 0H64.7684C60.7074 0 57.3782 3.77623 57.3782 8.47553V15.5245L61.5489 14.9371V8.47553V8.47553Z" fill="#0275D8"/>
<path d="M77.9024 16.6573L76.5853 16.4895L72.4145 15.9021L67.3658 15.1888C67.2194 15.1888 67.1097 15.1468 66.9633 15.1468C66.8536 15.1468 66.7072 15.1468 66.5609 15.1888L61.5121 15.9021L57.3414 16.4895L56.0609 16.6573C54.4145 16.8671 53.1707 18.5035 53.1707 20.3916V35.0769C53.1707 37.007 54.4145 38.6014 56.0609 38.8112L66.5609 40.2797C66.7072 40.2797 66.817 40.3217 66.9633 40.3217C67.1097 40.3217 67.2194 40.3217 67.3658 40.2797L77.8658 38.8112C79.5121 38.6014 80.756 36.965 80.756 35.0769V20.3916C80.7926 18.4615 79.5487 16.8671 77.9024 16.6573ZM68.9389 33.0209H65.0975L65.756 27.2727C65.0975 26.7692 64.6219 25.9301 64.6219 24.965C64.6219 23.4545 65.6828 22.2377 66.9999 22.2377C68.317 22.2377 69.378 23.4545 69.378 24.965C69.378 25.9301 68.939 26.7692 68.2438 27.2727L68.9389 33.0209Z" fill="#0275D8"/>
<path d="M17.2637 22.1543H12.9082V34H9.97852V22.1543H5.68164V19.7812H17.2637V22.1543ZM16.2871 28.6191C16.2871 27.571 16.4889 26.6367 16.8926 25.8164C17.2962 24.9961 17.8757 24.3613 18.6309 23.9121C19.3926 23.4629 20.2747 23.2383 21.2773 23.2383C22.7031 23.2383 23.8652 23.6745 24.7637 24.5469C25.6686 25.4193 26.1732 26.6042 26.2773 28.1016L26.2969 28.8242C26.2969 30.4453 25.8444 31.7474 24.9395 32.7305C24.0345 33.707 22.8203 34.1953 21.2969 34.1953C19.7734 34.1953 18.556 33.707 17.6445 32.7305C16.7396 31.7539 16.2871 30.4258 16.2871 28.7461V28.6191ZM19.1094 28.8242C19.1094 29.8268 19.2982 30.5951 19.6758 31.1289C20.0534 31.6562 20.5938 31.9199 21.2969 31.9199C21.9805 31.9199 22.5143 31.6595 22.8984 31.1387C23.2826 30.6113 23.4746 29.7715 23.4746 28.6191C23.4746 27.6361 23.2826 26.8743 22.8984 26.334C22.5143 25.7936 21.974 25.5234 21.2773 25.5234C20.5872 25.5234 20.0534 25.7936 19.6758 26.334C19.2982 26.8678 19.1094 27.6979 19.1094 28.8242ZM31.4141 20.8359V23.4336H33.2207V25.5039H31.4141V30.7773C31.4141 31.168 31.4889 31.4479 31.6387 31.6172C31.7884 31.7865 32.0749 31.8711 32.498 31.8711C32.8105 31.8711 33.0872 31.8483 33.3281 31.8027V33.9414C32.7747 34.1107 32.2051 34.1953 31.6191 34.1953C29.64 34.1953 28.6309 33.196 28.5918 31.1973V25.5039H27.0488V23.4336H28.5918V20.8359H31.4141ZM40.916 34C40.7858 33.7461 40.6914 33.4303 40.6328 33.0527C39.9492 33.8145 39.0605 34.1953 37.9668 34.1953C36.9316 34.1953 36.0723 33.8958 35.3887 33.2969C34.7116 32.6979 34.373 31.9427 34.373 31.0312C34.373 29.9115 34.7865 29.0521 35.6133 28.4531C36.4466 27.8542 37.6478 27.5514 39.2168 27.5449H40.5156V26.9395C40.5156 26.4512 40.3887 26.0605 40.1348 25.7676C39.8874 25.4746 39.4935 25.3281 38.9531 25.3281C38.4779 25.3281 38.1035 25.4421 37.8301 25.6699C37.5632 25.8978 37.4297 26.2103 37.4297 26.6074H34.6074C34.6074 25.9954 34.7962 25.429 35.1738 24.9082C35.5514 24.3874 36.0853 23.9805 36.7754 23.6875C37.4655 23.388 38.2402 23.2383 39.0996 23.2383C40.4017 23.2383 41.4336 23.5671 42.1953 24.2246C42.9635 24.8757 43.3477 25.7936 43.3477 26.9785V31.5586C43.3542 32.5612 43.4941 33.3197 43.7676 33.834V34H40.916ZM38.582 32.0371C38.9987 32.0371 39.3828 31.946 39.7344 31.7637C40.0859 31.5749 40.3464 31.3242 40.5156 31.0117V29.1953H39.4609C38.0482 29.1953 37.2962 29.6836 37.2051 30.6602L37.1953 30.8262C37.1953 31.1777 37.319 31.4674 37.5664 31.6953C37.8138 31.9232 38.1523 32.0371 38.582 32.0371ZM48.4941 34H45.6621V19H48.4941V34ZM88.8066 28.9902V34H85.877V19.7812H91.4238C92.4915 19.7812 93.429 19.9766 94.2363 20.3672C95.0501 20.7578 95.6751 21.3145 96.1113 22.0371C96.5475 22.7533 96.7656 23.5703 96.7656 24.4883C96.7656 25.8815 96.2871 26.9818 95.3301 27.7891C94.3796 28.5898 93.0612 28.9902 91.375 28.9902H88.8066ZM88.8066 26.6172H91.4238C92.1986 26.6172 92.7878 26.4349 93.1914 26.0703C93.6016 25.7057 93.8066 25.1849 93.8066 24.5078C93.8066 23.8112 93.6016 23.248 93.1914 22.8184C92.7812 22.3887 92.2148 22.1673 91.4922 22.1543H88.8066V26.6172ZM104.607 34C104.477 33.7461 104.383 33.4303 104.324 33.0527C103.641 33.8145 102.752 34.1953 101.658 34.1953C100.623 34.1953 99.7637 33.8958 99.0801 33.2969C98.403 32.6979 98.0645 31.9427 98.0645 31.0312C98.0645 29.9115 98.4779 29.0521 99.3047 28.4531C100.138 27.8542 101.339 27.5514 102.908 27.5449H104.207V26.9395C104.207 26.4512 104.08 26.0605 103.826 25.7676C103.579 25.4746 103.185 25.3281 102.645 25.3281C102.169 25.3281 101.795 25.4421 101.521 25.6699C101.255 25.8978 101.121 26.2103 101.121 26.6074H98.2988C98.2988 25.9954 98.4876 25.429 98.8652 24.9082C99.2428 24.3874 99.7767 23.9805 100.467 23.6875C101.157 23.388 101.932 23.2383 102.791 23.2383C104.093 23.2383 105.125 23.5671 105.887 24.2246C106.655 24.8757 107.039 25.7936 107.039 26.9785V31.5586C107.046 32.5612 107.186 33.3197 107.459 33.834V34H104.607ZM102.273 32.0371C102.69 32.0371 103.074 31.946 103.426 31.7637C103.777 31.5749 104.038 31.3242 104.207 31.0117V29.1953H103.152C101.74 29.1953 100.988 29.6836 100.896 30.6602L100.887 30.8262C100.887 31.1777 101.01 31.4674 101.258 31.6953C101.505 31.9232 101.844 32.0371 102.273 32.0371ZM114.93 31.0801C114.93 30.735 114.757 30.4648 114.412 30.2695C114.074 30.0677 113.527 29.8887 112.771 29.7324C110.258 29.2051 109.002 28.1374 109.002 26.5293C109.002 25.5918 109.389 24.8105 110.164 24.1855C110.945 23.554 111.964 23.2383 113.221 23.2383C114.562 23.2383 115.633 23.554 116.434 24.1855C117.241 24.8171 117.645 25.6374 117.645 26.6465H114.822C114.822 26.2428 114.692 25.9108 114.432 25.6504C114.171 25.3835 113.764 25.25 113.211 25.25C112.736 25.25 112.368 25.3574 112.107 25.5723C111.847 25.7871 111.717 26.0605 111.717 26.3926C111.717 26.7051 111.863 26.959 112.156 27.1543C112.456 27.3431 112.957 27.5091 113.66 27.6523C114.363 27.7891 114.956 27.9453 115.438 28.1211C116.928 28.668 117.674 29.6152 117.674 30.9629C117.674 31.9264 117.26 32.7077 116.434 33.3066C115.607 33.8991 114.539 34.1953 113.23 34.1953C112.345 34.1953 111.557 34.0391 110.867 33.7266C110.184 33.4076 109.646 32.9746 109.256 32.4277C108.865 31.8743 108.67 31.2786 108.67 30.6406H111.346C111.372 31.1419 111.557 31.526 111.902 31.793C112.247 32.0599 112.71 32.1934 113.289 32.1934C113.829 32.1934 114.236 32.0924 114.51 31.8906C114.79 31.6823 114.93 31.4121 114.93 31.0801ZM125.223 31.0801C125.223 30.735 125.05 30.4648 124.705 30.2695C124.367 30.0677 123.82 29.8887 123.064 29.7324C120.551 29.2051 119.295 28.1374 119.295 26.5293C119.295 25.5918 119.682 24.8105 120.457 24.1855C121.238 23.554 122.257 23.2383 123.514 23.2383C124.855 23.2383 125.926 23.554 126.727 24.1855C127.534 24.8171 127.938 25.6374 127.938 26.6465H125.115C125.115 26.2428 124.985 25.9108 124.725 25.6504C124.464 25.3835 124.057 25.25 123.504 25.25C123.029 25.25 122.661 25.3574 122.4 25.5723C122.14 25.7871 122.01 26.0605 122.01 26.3926C122.01 26.7051 122.156 26.959 122.449 27.1543C122.749 27.3431 123.25 27.5091 123.953 27.6523C124.656 27.7891 125.249 27.9453 125.73 28.1211C127.221 28.668 127.967 29.6152 127.967 30.9629C127.967 31.9264 127.553 32.7077 126.727 33.3066C125.9 33.8991 124.832 34.1953 123.523 34.1953C122.638 34.1953 121.85 34.0391 121.16 33.7266C120.477 33.4076 119.939 32.9746 119.549 32.4277C119.158 31.8743 118.963 31.2786 118.963 30.6406H121.639C121.665 31.1419 121.85 31.526 122.195 31.793C122.54 32.0599 123.003 32.1934 123.582 32.1934C124.122 32.1934 124.529 32.0924 124.803 31.8906C125.083 31.6823 125.223 31.4121 125.223 31.0801Z" fill="#0275D8"/>
</svg>
