<svg width="492" height="429" viewBox="0 0 492 429" fill="none" xmlns="http://www.w3.org/2000/svg">
<path d="M201.3 60.6C201.3 46.2 213 34.2001 227.7 34.2001H264.3C279 34.2001 290.7 45.9 290.7 60.6V106.8L324.9 111V60.6C324.9 27.3 297.9 0 264.3 0H227.7C194.4 0 167.1 27 167.1 60.6V111L201.3 106.8V60.6V60.6Z" fill="#1DB954"/>
<path d="M335.4 119.1L324.6 117.9L290.4 113.7L249 108.6C247.8 108.6 246.9 108.3 245.7 108.3C244.8 108.3 243.6 108.3 242.4 108.6L201 113.7L166.8 117.9L156.3 119.1C142.8 120.6 132.6 132.3 132.6 145.8V250.8C132.6 264.6 142.8 276 156.3 277.5L242.4 288C243.6 288 244.5 288.3 245.7 288.3C246.9 288.3 247.8 288.3 249 288L335.1 277.5C348.6 276 358.8 264.3 358.8 250.8V145.8C359.1 132 348.9 120.6 335.4 119.1ZM261.9 236.1H230.4L235.8 195C230.4 191.4 226.5 185.4 226.5 178.5C226.5 167.7 235.2 159 246 159C256.8 159 265.5 167.7 265.5 178.5C265.5 185.4 261.9 191.4 256.2 195L261.9 236.1Z" fill="#1DB954"/>
<path d="M84.4766 345.771H62.6992V405H48.0508V345.771H26.5664V333.906H84.4766V345.771ZM79.5938 378.096C79.5938 372.855 80.6029 368.184 82.6211 364.082C84.6393 359.98 87.5365 356.807 91.3125 354.561C95.1211 352.314 99.5319 351.191 104.545 351.191C111.674 351.191 117.484 353.372 121.977 357.734C126.501 362.096 129.024 368.021 129.545 375.508L129.643 379.121C129.643 387.227 127.38 393.737 122.855 398.652C118.331 403.535 112.26 405.977 104.643 405.977C97.0254 405.977 90.9382 403.535 86.3809 398.652C81.8561 393.77 79.5938 387.129 79.5938 378.73V378.096ZM93.7051 379.121C93.7051 384.134 94.6491 387.975 96.5371 390.645C98.4251 393.281 101.127 394.6 104.643 394.6C108.061 394.6 110.73 393.298 112.65 390.693C114.571 388.057 115.531 383.857 115.531 378.096C115.531 373.18 114.571 369.372 112.65 366.67C110.73 363.968 108.028 362.617 104.545 362.617C101.094 362.617 98.4251 363.968 96.5371 366.67C94.6491 369.339 93.7051 373.49 93.7051 379.121ZM155.229 339.18V352.168H164.262V362.52H155.229V388.887C155.229 390.84 155.603 392.24 156.352 393.086C157.1 393.932 158.533 394.355 160.648 394.355C162.211 394.355 163.594 394.242 164.799 394.014V404.707C162.032 405.553 159.184 405.977 156.254 405.977C146.358 405.977 141.312 400.98 141.117 390.986V362.52H133.402V352.168H141.117V339.18H155.229ZM202.738 405C202.087 403.73 201.615 402.152 201.322 400.264C197.904 404.072 193.461 405.977 187.992 405.977C182.816 405.977 178.52 404.479 175.102 401.484C171.716 398.49 170.023 394.714 170.023 390.156C170.023 384.557 172.09 380.26 176.225 377.266C180.391 374.271 186.397 372.757 194.242 372.725H200.736V369.697C200.736 367.256 200.102 365.303 198.832 363.838C197.595 362.373 195.626 361.641 192.924 361.641C190.548 361.641 188.676 362.21 187.309 363.35C185.974 364.489 185.307 366.051 185.307 368.037H171.195C171.195 364.977 172.139 362.145 174.027 359.541C175.915 356.937 178.585 354.902 182.035 353.438C185.486 351.94 189.359 351.191 193.656 351.191C200.167 351.191 205.326 352.835 209.135 356.123C212.976 359.378 214.896 363.968 214.896 369.893V392.793C214.929 397.806 215.629 401.598 216.996 404.17V405H202.738ZM191.068 395.186C193.152 395.186 195.072 394.73 196.83 393.818C198.588 392.874 199.89 391.621 200.736 390.059V380.977H195.463C188.399 380.977 184.639 383.418 184.184 388.301L184.135 389.131C184.135 390.889 184.753 392.337 185.99 393.477C187.227 394.616 188.92 395.186 191.068 395.186ZM240.629 405H226.469V330H240.629V405ZM267.875 379.951V405H253.227V333.906H280.961C286.299 333.906 290.987 334.883 295.023 336.836C299.092 338.789 302.217 341.572 304.398 345.186C306.579 348.766 307.67 352.852 307.67 357.441C307.67 364.408 305.277 369.909 300.492 373.945C295.74 377.949 289.148 379.951 280.717 379.951H267.875ZM267.875 368.086H280.961C284.835 368.086 287.781 367.174 289.799 365.352C291.85 363.529 292.875 360.924 292.875 357.539C292.875 354.056 291.85 351.24 289.799 349.092C287.748 346.943 284.916 345.837 281.303 345.771H267.875V368.086ZM346.879 405C346.228 403.73 345.756 402.152 345.463 400.264C342.045 404.072 337.602 405.977 332.133 405.977C326.957 405.977 322.66 404.479 319.242 401.484C315.857 398.49 314.164 394.714 314.164 390.156C314.164 384.557 316.231 380.26 320.365 377.266C324.532 374.271 330.538 372.757 338.383 372.725H344.877V369.697C344.877 367.256 344.242 365.303 342.973 363.838C341.736 362.373 339.766 361.641 337.064 361.641C334.688 361.641 332.816 362.21 331.449 363.35C330.115 364.489 329.447 366.051 329.447 368.037H315.336C315.336 364.977 316.28 362.145 318.168 359.541C320.056 356.937 322.725 354.902 326.176 353.438C329.626 351.94 333.5 351.191 337.797 351.191C344.307 351.191 349.467 352.835 353.275 356.123C357.117 359.378 359.037 363.968 359.037 369.893V392.793C359.07 397.806 359.77 401.598 361.137 404.17V405H346.879ZM335.209 395.186C337.292 395.186 339.213 394.73 340.971 393.818C342.729 392.874 344.031 391.621 344.877 390.059V380.977H339.604C332.54 380.977 328.78 383.418 328.324 388.301L328.275 389.131C328.275 390.889 328.894 392.337 330.131 393.477C331.368 394.616 333.061 395.186 335.209 395.186ZM398.49 390.4C398.49 388.675 397.628 387.324 395.902 386.348C394.21 385.339 391.475 384.443 387.699 383.662C375.134 381.025 368.852 375.687 368.852 367.646C368.852 362.959 370.788 359.053 374.662 355.928C378.568 352.77 383.663 351.191 389.945 351.191C396.651 351.191 402.006 352.77 406.01 355.928C410.046 359.085 412.064 363.187 412.064 368.232H397.953C397.953 366.214 397.302 364.554 396 363.252C394.698 361.917 392.663 361.25 389.896 361.25C387.52 361.25 385.681 361.787 384.379 362.861C383.077 363.936 382.426 365.303 382.426 366.963C382.426 368.525 383.158 369.795 384.623 370.771C386.12 371.715 388.627 372.546 392.143 373.262C395.658 373.945 398.62 374.727 401.029 375.605C408.484 378.34 412.211 383.076 412.211 389.814C412.211 394.632 410.144 398.538 406.01 401.533C401.876 404.495 396.537 405.977 389.994 405.977C385.567 405.977 381.628 405.195 378.178 403.633C374.76 402.038 372.074 399.873 370.121 397.139C368.168 394.372 367.191 391.393 367.191 388.203H380.57C380.701 390.71 381.628 392.63 383.354 393.965C385.079 395.299 387.39 395.967 390.287 395.967C392.989 395.967 395.023 395.462 396.391 394.453C397.79 393.411 398.49 392.061 398.49 390.4ZM449.955 390.4C449.955 388.675 449.092 387.324 447.367 386.348C445.674 385.339 442.94 384.443 439.164 383.662C426.599 381.025 420.316 375.687 420.316 367.646C420.316 362.959 422.253 359.053 426.127 355.928C430.033 352.77 435.128 351.191 441.41 351.191C448.116 351.191 453.471 352.77 457.475 355.928C461.511 359.085 463.529 363.187 463.529 368.232H449.418C449.418 366.214 448.767 364.554 447.465 363.252C446.163 361.917 444.128 361.25 441.361 361.25C438.985 361.25 437.146 361.787 435.844 362.861C434.542 363.936 433.891 365.303 433.891 366.963C433.891 368.525 434.623 369.795 436.088 370.771C437.585 371.715 440.092 372.546 443.607 373.262C447.123 373.945 450.085 374.727 452.494 375.605C459.949 378.34 463.676 383.076 463.676 389.814C463.676 394.632 461.609 398.538 457.475 401.533C453.34 404.495 448.002 405.977 441.459 405.977C437.032 405.977 433.093 405.195 429.643 403.633C426.225 402.038 423.539 399.873 421.586 397.139C419.633 394.372 418.656 391.393 418.656 388.203H432.035C432.165 390.71 433.093 392.63 434.818 393.965C436.544 395.299 438.855 395.967 441.752 395.967C444.454 395.967 446.488 395.462 447.855 394.453C449.255 393.411 449.955 392.061 449.955 390.4Z" fill="#1DB954"/>
</svg>
